<svg version="1.1" xmlns="http://www.w3.org/2000/svg"
      xmlns:xlink="http://www.w3.org/1999/xlink" viewBox="0 0 1792 1792">
	<title>Bad</title>
  <style type="text/css" >
    <![CDATA[
      path {
        fill: #c43938;
      }
			circle {
				fill: #ffffff;
			}
    ]]>
  </style>
	<circle cx="896" cy="896" r="896"/>
	<path transform="matrix(0.8, 0, 0, 0.8, 180, 180)" d="M1490 1322q0 40-28 68l-136 136q-28 28-68 28t-68-28l-294-294-294 294q-28 28-68 28t-68-28l-136-136q-28-28-28-68t28-68l294-294-294-294q-28-28-28-68t28-68l136-136q28-28 68-28t68 28l294 294 294-294q28-28 68-28t68 28l136 136q28 28 28 68t-28 68l-294 294 294 294q28 28 28 68z"/>
</svg>