<?xml version="1.0" standalone="no"?>
<!DOCTYPE svg PUBLIC "-//W3C//DTD SVG 1.1//EN" "http://www.w3.org/Graphics/SVG/1.1/DTD/svg11.dtd">
<svg width="150" height="150" viewBox="0 0 1792 1792" version="1.1" xmlns="http://www.w3.org/2000/svg" xmlns:xlink="http://www.w3.org/1999/xlink" xml:space="preserve" style="fill-rule:evenodd;clip-rule:evenodd;stroke-linecap:round;stroke-linejoin:round;stroke-miterlimit:1.41421;">
	<defs>
		<g id="design-large">
	    <g id="text">
	        <rect x="137" y="960" width="753" height="34"/><rect x="137" y="1157" width="753" height="34"/><rect x="137" y="1354" width="753" height="34"/><rect x="137" y="1551" width="753" height="34"/>
	    </g>
	    <g id="person">
	        <path d="M319,551 L202,551 C173,551 149,531 149,507 L167,379 C167,355 191,334 219,334 L302,334 C331,334 354,355 354,379 L371,507 C371,531 348,551 319,551 Z"/><ellipse cx="261" cy="227" rx="75" ry="75"/>
	    </g>
	    <path d="M1770,852 C1770,826 1749,804 1723,804 L1229,804 C1203,804 1182,826 1182,852 L1182,1669 C1182,1696 1203,1717 1229,1717 L1723,1717 C1749,1717 1770,1696 1770,1669 L1770,852 Z" style="fill:none;stroke-width:40px;stroke:black;"/>
	    <path d="M484,123 C484,96 462,74 435,74 L73,74 C46,74 23,96 23,123 L23,556 C23,583 46,605 73,605 L435,605 C462,605 484,583 484,556 L484,123 Z" style="fill:none;stroke-width:47px;stroke:black;"/>
	    <path d="M1013,858 C1013,829 990,805 961,805 L76,805 C47,805 23,829 23,858 L23,1665 C23,1694 47,1718 76,1718 L961,1718 C990,1718 1013,1694 1013,1665 L1013,858 Z" style="fill:none;stroke-width:40px;stroke:black;"/>
	    <path d="M1768,123 C1768,96 1746,75 1719,75 L708,75 C681,75 659,96 659,123 L659,555 C659,582 681,604 708,604 L1719,604 C1746,604 1768,582 1768,555 L1768,123 Z" style="fill:none;stroke-width:47px;stroke:black;"/>
		</g>

		<g id="design-small">
	    <path d="M1770,852 C1770,826 1749,804 1723,804 L1229,804 C1203,804 1182,826 1182,852 L1182,1669 C1182,1696 1203,1717 1229,1717 L1723,1717 C1749,1717 1770,1696 1770,1669 L1770,852 Z" style="fill:none;stroke-width:40px;stroke:black;"/>
	    <path d="M484,123 C484,96 462,74 435,74 L73,74 C46,74 23,96 23,123 L23,556 C23,583 46,605 73,605 L435,605 C462,605 484,583 484,556 L484,123 Z" style="fill:none;stroke-width:47px;stroke:black;"/>
	    <path d="M1013,858 C1013,829 990,805 961,805 L76,805 C47,805 23,829 23,858 L23,1665 C23,1694 47,1718 76,1718 L961,1718 C990,1718 1013,1694 1013,1665 L1013,858 Z" style="fill:none;stroke-width:40px;stroke:black;"/>
	    <path d="M1768,123 C1768,96 1746,75 1719,75 L708,75 C681,75 659,96 659,123 L659,555 C659,582 681,604 708,604 L1719,604 C1746,604 1768,582 1768,555 L1768,123 Z" style="fill:none;stroke-width:47px;stroke:black;"/>
		</g>

		<path id="writing" d="M491 1536l91-91-235-235-91 91v107h128v128h107zm523-928q0-22-22-22-10 0-17 7l-542 542q-7 7-7 17 0 22 22 22 10 0 17-7l542-542q7-7 7-17zm-54-192l416 416-832 832h-416v-416zm683 96q0 53-37 90l-166 166-416-416 166-165q36-38 90-38 53 0 91 38l235 234q37 39 37 91z"/>

		<path id="developing" d="M553 1399l-50 50q-10 10-23 10t-23-10l-466-466q-10-10-10-23t10-23l466-466q10-10 23-10t23 10l50 50q10 10 10 23t-10 23l-393 393 393 393q10 10 10 23t-10 23zm591-1067l-373 1291q-4 13-15.5 19.5t-23.5 2.5l-62-17q-13-4-19.5-15.5t-2.5-24.5l373-1291q4-13 15.5-19.5t23.5-2.5l62 17q13 4 19.5 15.5t2.5 24.5zm657 651l-466 466q-10 10-23 10t-23-10l-50-50q-10-10-10-23t10-23l393-393-393-393q-10-10-10-23t10-23l50-50q10-10 23-10t23 10l466 466q10 10 10 23t-10 23z"/>
	</defs>
</svg>

